<svg width="1667" height="369" viewBox="0 0 1667 369" fill="none" xmlns="http://www.w3.org/2000/svg">
<mask id="mask0_156_166" style="mask-type:alpha" maskUnits="userSpaceOnUse" x="-215" y="0" width="2154" height="369">
<path d="M-215 0H1939V368.101H-215V0Z" fill="#C4C4C4"/>
</mask>
<g mask="url(#mask0_156_166)">
<path d="M-215 350.468H814.562C859.396 350.468 902.623 335.152 935.807 307.509L1036.41 223.703C1069.59 196.06 1112.82 180.744 1157.66 180.744H1939V377.49H-215V350.468Z" fill="white"/>
<mask id="mask1_156_166" style="mask-type:alpha" maskUnits="userSpaceOnUse" x="-217" y="76" width="2146" height="218">
<path d="M-216.202 76.0449H1928.18V293.158H-216.202V76.0449Z" fill="#F8F0E5"/>
</mask>
<g mask="url(#mask1_156_166)">
<path d="M-83.981 229.619V229.068H-84.582V229.619H-83.981ZM-83.981 231.128H-84.582V231.679H-83.981V231.128ZM1894.35 77.5548V78.1058H1894.95V77.5548H1894.35ZM1894.35 76.0449H1894.95V75.4938H1894.35V76.0449ZM-34.7371 260.368V259.817H-35.3381V260.368H-34.7371ZM-34.7371 261.883H-35.3381V262.434H-34.7371V261.883ZM1944.3 107.662V108.213H1944.9V107.662H1944.3ZM1944.3 106.147H1944.9V105.595H1944.3V106.147ZM15.9336 290.475V289.924H15.3326V290.475H15.9336ZM15.9336 291.985H15.3326V292.536H15.9336V291.985ZM1994.97 138.41V138.962H1995.57V138.41H1994.97ZM1994.97 136.902H1995.57V136.351H1994.97V136.902ZM868.955 115.661C899.319 90.5188 938.807 76.597 979.756 76.597V75.4949C938.51 75.4949 898.735 89.5192 868.148 114.844L868.955 115.661ZM777.716 191.211L868.955 115.661L868.148 114.844L776.911 190.393L777.716 191.211ZM667.216 230.171C708.053 230.171 747.434 216.286 777.716 191.211L776.911 190.393C746.849 215.285 707.755 229.069 667.216 229.069V230.171ZM-83.981 230.171H667.216V229.069H-83.981V230.171ZM-83.38 231.129V229.62H-84.582V231.128L-83.38 231.129ZM687.639 230.578H-83.981V231.679L687.639 231.68V230.578ZM798.44 191.513C768.055 216.663 728.574 230.583 687.639 230.578V231.68C728.872 231.685 768.64 217.664 799.247 192.331L798.44 191.513ZM889.679 115.963L798.44 191.513L799.247 192.331L890.484 116.782L889.679 115.963ZM1000.18 77.0048C959.342 77.0048 919.961 90.8891 889.679 115.965L890.484 116.782C920.567 91.8826 959.656 78.1029 1000.18 78.108V77.0048ZM1894.35 77.0048H1000.18V78.108L1894.35 78.1058V77.0048ZM1893.74 76.046V77.5559L1894.95 77.5548V76.0449L1893.74 76.046ZM979.756 76.597H1894.35V75.4938L979.756 75.4949V76.597ZM918.543 145.927C948.918 120.678 988.415 106.698 1029.38 106.698V105.595C988.127 105.595 948.332 119.679 917.735 145.112L918.543 145.927ZM827.272 221.795L918.543 145.927L917.735 145.112L826.464 220.979L827.272 221.795ZM716.73 260.92C757.583 260.92 796.979 246.976 827.272 221.795L826.464 220.979C796.392 245.977 757.283 259.818 716.73 259.818V260.92ZM-34.7371 260.92H716.73V259.818H-34.7371V260.92ZM-34.1361 261.884V260.369H-35.3381V261.884H-34.1361ZM737.161 261.333H-34.7371V262.435H737.161V261.333ZM848.001 222.103C817.625 247.352 778.124 261.333 737.161 261.333V262.435C778.437 262.43 818.235 248.344 848.809 222.92L848.001 222.103ZM939.272 146.235L848.001 222.103L848.809 222.92L940.08 147.052L939.272 146.235ZM1049.81 107.112C1008.96 107.112 969.567 121.055 939.272 146.235L940.08 147.052C970.153 122.055 1009.26 108.214 1049.81 108.214V107.112ZM1944.3 107.112H1049.81V108.214L1944.3 108.213V107.112ZM1943.7 106.148V107.663L1944.9 107.662V106.147L1943.7 106.148ZM1029.38 106.698L1944.3 106.699V105.595H1029.38V106.698ZM969.213 176.519C999.594 151.376 1039.09 137.454 1080.06 137.454V136.352C1038.79 136.352 999.005 150.374 968.408 175.7L969.213 176.519ZM877.942 252.068L969.213 176.519L968.408 175.7L877.137 251.25L877.942 252.068ZM767.401 291.027C808.253 291.027 847.648 277.143 877.942 252.068L877.137 251.25C847.064 276.142 807.955 289.925 767.401 289.925V291.027ZM15.9336 291.027H767.401V289.925H15.9336V291.027ZM16.5346 291.986V290.476H15.3326V291.986H16.5346ZM787.832 291.435H15.9336V292.537H787.832V291.435ZM898.675 252.369C868.299 277.512 828.796 291.435 787.832 291.435V292.537C829.093 292.537 868.883 278.513 899.48 253.186L898.675 252.369ZM989.942 176.821L898.675 252.369L899.48 253.186L990.747 177.639L989.942 176.821ZM1100.49 137.861C1059.63 137.861 1020.24 151.746 989.942 176.821L990.747 177.639C1020.82 152.747 1059.93 138.963 1100.49 138.963V137.861ZM1994.97 137.861H1100.49V138.963L1994.97 138.962V137.861ZM1994.36 136.903V138.412L1995.57 138.41V136.902L1994.36 136.903ZM1080.06 137.454H1994.97V136.351L1080.06 136.352V137.454Z" fill="url(#paint0_linear_156_166)"/>
</g>
</g>
<defs>
<linearGradient id="paint0_linear_156_166" x1="-15.4665" y1="279.382" x2="1907.8" y2="38.1045" gradientUnits="userSpaceOnUse">
<stop stop-color="white"/>
<stop offset="0.303" stop-color="#68A3A7"/>
<stop offset="0.443" stop-color="#3366CC"/>
<stop offset="0.543" stop-color="#AF8D65"/>
<stop offset="1" stop-color="#D18FC3"/>
</linearGradient>
</defs>
</svg>
