<svg width="1920" height="358" viewBox="0 0 1920 358" fill="none" xmlns="http://www.w3.org/2000/svg">
<mask id="mask0_371_28" style="mask-type:alpha" maskUnits="userSpaceOnUse" x="0" y="0" width="1920" height="358">
<path d="M0 0H1919.93V357.84H0V0Z" fill="#C4C4C4"/>
</mask>
<g mask="url(#mask0_371_28)">
<path d="M0 340.698H917.681C957.644 340.698 996.173 325.809 1025.75 298.936L1115.42 217.467C1144.99 190.594 1183.53 175.706 1223.49 175.706H1919.93V366.967H0V340.698Z" fill="white"/>
<mask id="mask1_371_28" style="mask-type:alpha" maskUnits="userSpaceOnUse" x="-2" y="73" width="1913" height="212">
<path d="M-1.07129 73.9248H1910.29V284.986H-1.07129V73.9248Z" fill="#F8F0E5"/>
</mask>
<g mask="url(#mask1_371_28)">
<path d="M116.781 223.218V222.682H116.246V223.218H116.781ZM116.781 224.685H116.246V225.22H116.781V224.685ZM1880.13 75.3926V75.9283H1880.66V75.3926H1880.13ZM1880.13 73.9248H1880.66V73.3892H1880.13V73.9248ZM160.674 253.109V252.574H160.138V253.109H160.674ZM160.674 254.583H160.138V255.118H160.674V254.583ZM1924.65 104.661V105.196H1925.19V104.661H1924.65ZM1924.65 103.187H1925.19V102.652H1924.65V103.187ZM205.838 282.377V281.842H205.303V282.377H205.838ZM205.838 283.845H205.303V284.381H205.838V283.845ZM1969.81 134.552V135.088H1970.35V134.552H1969.81ZM1969.81 133.085H1970.35V132.55H1969.81V133.085ZM966.164 112.437C993.228 87.9952 1028.43 74.4616 1064.92 74.4616V73.3902C1028.16 73.3902 992.707 87.0235 965.445 111.643L966.164 112.437ZM884.84 185.881L966.164 112.437L965.445 111.643L884.122 185.086L884.84 185.881ZM786.347 223.755C822.746 223.755 857.848 210.257 884.84 185.881L884.122 185.086C857.327 209.284 822.481 222.683 786.347 222.683V223.755ZM116.781 223.755H786.347V222.683H116.781V223.755ZM117.317 224.686V223.219H116.246V224.685L117.317 224.686ZM804.551 224.15H116.781V225.22L804.551 225.222V224.15ZM903.312 186.174C876.228 210.623 841.038 224.155 804.551 224.15V225.222C841.303 225.226 876.75 211.596 904.031 186.969L903.312 186.174ZM984.635 112.73L903.312 186.174L904.031 186.969L985.353 113.526L984.635 112.73ZM1083.13 74.858C1046.73 74.858 1011.63 88.3552 984.635 112.732L985.353 113.526C1012.17 89.321 1047.01 75.9255 1083.13 75.9305V74.858ZM1880.13 74.858H1083.13V75.9305L1880.13 75.9283V74.858ZM1879.59 73.9259V75.3937L1880.66 75.3926V73.9248L1879.59 73.9259ZM1064.92 74.4616H1880.13V73.3892L1064.92 73.3902V74.4616ZM1010.36 141.859C1037.44 117.313 1072.64 103.723 1109.16 103.723V102.652C1072.39 102.652 1036.91 116.343 1009.64 141.067L1010.36 141.859ZM929.01 215.612L1010.36 141.859L1009.64 141.067L928.29 214.818L929.01 215.612ZM830.481 253.646C866.894 253.646 902.009 240.091 929.01 215.612L928.29 214.818C901.486 239.119 866.627 252.575 830.481 252.575V253.646ZM160.674 253.646H830.481V252.575H160.674V253.646ZM161.21 254.584V253.111H160.138V254.584H161.21ZM848.691 254.048H160.674V255.119H848.691V254.048ZM947.487 215.911C920.412 240.457 885.203 254.048 848.691 254.048V255.119C885.482 255.114 920.955 241.421 948.207 216.705L947.487 215.911ZM1028.84 142.159L947.487 215.911L948.207 216.705L1029.56 142.953L1028.84 142.159ZM1127.37 104.126C1090.95 104.126 1055.84 117.68 1028.84 142.159L1029.56 142.953C1056.36 118.653 1091.22 105.197 1127.37 105.197V104.126ZM1924.65 104.126H1127.37V105.197L1924.65 105.196V104.126ZM1924.12 103.188V104.662L1925.19 104.661V103.187L1924.12 103.188ZM1109.16 103.723L1924.65 103.724V102.652H1109.16V103.723ZM1055.53 171.598C1082.61 147.156 1117.81 133.622 1154.33 133.622V132.551C1117.54 132.551 1082.08 146.182 1054.81 170.802L1055.53 171.598ZM974.174 245.041L1055.53 171.598L1054.81 170.802L973.457 244.246L974.174 245.041ZM875.645 282.914C912.059 282.914 947.172 269.417 974.174 245.041L973.457 244.246C946.652 268.444 911.793 281.843 875.645 281.843V282.914ZM205.838 282.914H875.645V281.843H205.838V282.914ZM206.374 283.846V282.378H205.303V283.846H206.374ZM893.857 283.311H205.838V284.382H893.857V283.311ZM992.654 245.333C965.579 269.776 930.369 283.311 893.857 283.311V284.382C930.633 284.382 966.099 270.749 993.372 246.128L992.654 245.333ZM1074 171.892L992.654 245.333L993.372 246.128L1074.72 172.687L1074 171.892ZM1172.54 134.017C1136.12 134.017 1101.01 147.516 1074 171.892L1074.72 172.687C1101.53 148.488 1136.39 135.089 1172.54 135.089V134.017ZM1969.81 134.017H1172.54V135.089L1969.81 135.088V134.017ZM1969.28 133.086V134.553L1970.35 134.552V133.085L1969.28 133.086ZM1154.33 133.622H1969.81V132.55L1154.33 132.551V133.622Z" fill="url(#paint0_linear_371_28)"/>
</g>
</g>
<defs>
<linearGradient id="paint0_linear_371_28" x1="177.85" y1="271.594" x2="1896.36" y2="73.9205" gradientUnits="userSpaceOnUse">
<stop stop-color="#68A3A7" stop-opacity="0"/>
<stop offset="0.303" stop-color="#68A3A7"/>
<stop offset="0.443" stop-color="#3366CC"/>
<stop offset="0.543" stop-color="#D8A76E"/>
<stop offset="1" stop-color="#D8A76E" stop-opacity="0"/>
</linearGradient>
</defs>
</svg>
