<svg width="1667" height="394" viewBox="0 0 1667 394" fill="none" xmlns="http://www.w3.org/2000/svg">
<mask id="mask0_158_195" style="mask-type:alpha" maskUnits="userSpaceOnUse" x="-143" y="0" width="1920" height="394">
<path d="M-143 394L1776.93 394V-3.05176e-05L-143 -3.05176e-05L-143 394Z" fill="#C4C4C4"/>
</mask>
<g mask="url(#mask0_158_195)">
<path d="M-143 18.8744L774.681 18.8744C814.644 18.8744 853.173 35.2679 882.751 64.8556L972.423 154.558C1001.99 184.146 1040.53 200.539 1080.49 200.539L1776.93 200.539V-10.0492L-143 -10.0492V18.8744Z" fill="white"/>
<mask id="mask1_158_195" style="mask-type:alpha" maskUnits="userSpaceOnUse" x="-145" y="80" width="1913" height="233">
<path d="M-144.071 312.605L1767.29 312.605V80.2157L-144.071 80.2157L-144.071 312.605Z" fill="#F8F0E5"/>
</mask>
<g mask="url(#mask1_158_195)">
<path d="M-26.2185 148.226V148.815H-26.7542V148.226H-26.2185ZM-26.2185 146.611H-26.7542L-26.7542 146.021H-26.2185V146.611ZM1737.13 310.989V310.399H1737.66V310.989H1737.13ZM1737.13 312.605H1737.66V313.195H1737.13V312.605ZM17.6742 115.314V115.903H17.1385V115.314H17.6742ZM17.6742 113.692H17.1385V113.102H17.6742V113.692ZM1781.65 278.763V278.174H1782.19V278.763H1781.65ZM1781.65 280.385H1782.19V280.975H1781.65V280.385ZM62.8386 83.0882V83.678H62.3029V83.0882H62.8386ZM62.8386 81.4721H62.3029V80.8823H62.8386V81.4721ZM1826.81 245.851V245.262H1827.35V245.851H1826.81ZM1826.81 247.466H1827.35V248.056H1826.81V247.466ZM823.164 270.202C850.228 297.113 885.426 312.014 921.925 312.014V313.194C885.161 313.194 849.708 298.183 822.445 271.076L823.164 270.202ZM741.84 189.336L823.164 270.202L822.445 271.076L741.122 190.211L741.84 189.336ZM643.347 147.635C679.747 147.635 714.849 162.497 741.84 189.336L741.122 190.211C714.327 163.568 679.481 148.814 643.347 148.814V147.635ZM-26.2185 147.635L643.347 147.635V148.814L-26.2185 148.814V147.635ZM-25.6828 146.609L-25.6828 148.224H-26.7542V146.611L-25.6828 146.609ZM661.551 147.199L-26.2185 147.199L-26.2185 146.021L661.551 146.02V147.199ZM760.312 189.013C733.229 162.094 698.038 147.194 661.551 147.199V146.02C698.303 146.015 733.75 161.022 761.031 188.138L760.312 189.013ZM841.636 269.878L760.312 189.013L761.031 188.138L842.354 269.002L841.636 269.878ZM940.132 311.578C903.729 311.578 868.627 296.716 841.636 269.876L842.354 269.002C869.168 295.653 904.008 310.402 940.132 310.397V311.578ZM1737.13 311.578L940.132 311.578V310.397L1737.13 310.399V311.578ZM1736.59 312.604V310.988L1737.66 310.989V312.605L1736.59 312.604ZM921.925 312.014L1737.13 312.014V313.195L921.925 313.194V312.014ZM867.363 237.806C894.438 264.832 929.643 279.796 966.156 279.796V280.975C929.386 280.975 893.915 265.901 866.643 238.678L867.363 237.806ZM786.01 156.6L867.363 237.806L866.643 238.678L785.29 157.474L786.01 156.6ZM687.481 114.723C723.894 114.723 759.009 129.647 786.01 156.6L785.29 157.474C758.486 130.717 723.628 115.902 687.481 115.902V114.723ZM17.6742 114.723L687.481 114.723V115.902L17.6742 115.902V114.723ZM18.2099 113.69V115.312H17.1385V113.69H18.2099ZM705.691 114.28L17.6742 114.28V113.101L705.691 113.101V114.28ZM804.487 156.271C777.412 129.245 742.203 114.28 705.691 114.28V113.101C742.482 113.106 777.955 128.183 805.207 155.397L804.487 156.271ZM885.84 237.476L804.487 156.271L805.207 155.397L886.56 236.602L885.84 237.476ZM984.369 279.352C947.953 279.352 912.842 264.428 885.84 237.476L886.56 236.602C913.365 263.357 948.221 278.172 984.369 278.172V279.352ZM1781.65 279.352L984.369 279.352V278.172L1781.65 278.174V279.352ZM1781.12 280.384V278.762L1782.19 278.763V280.385L1781.12 280.384ZM966.156 279.796L1781.65 279.794V280.975L966.156 280.975V279.796ZM912.527 205.062C939.607 231.974 974.813 246.875 1011.33 246.875V248.055C974.545 248.055 939.082 233.046 911.81 205.938L912.527 205.062ZM831.175 124.197L912.527 205.062L911.81 205.938L830.457 125.073L831.175 124.197ZM732.645 82.4972C769.059 82.4972 804.172 97.3583 831.175 124.197L830.457 125.073C803.652 98.4294 768.793 83.6768 732.645 83.6768V82.4972ZM62.8386 82.4972L732.645 82.4972V83.6768L62.8386 83.6768V82.4972ZM63.3743 81.4709V83.087H62.3029V81.4709H63.3743ZM750.857 82.0607L62.8386 82.0607V80.8811L750.857 80.8811L750.857 82.0607ZM849.654 123.875C822.579 96.9631 787.369 82.0607 750.857 82.0607L750.857 80.8811C787.633 80.8811 823.1 95.892 850.372 123L849.654 123.875ZM931.004 204.739L849.654 123.875L850.372 123L931.721 203.863L931.004 204.739ZM1029.54 246.44C993.123 246.44 958.013 231.578 931.004 204.739L931.721 203.863C958.527 230.507 993.391 245.26 1029.54 245.26V246.44ZM1826.81 246.44L1029.54 246.44V245.26L1826.81 245.262V246.44ZM1826.28 247.465V245.85L1827.35 245.851V247.466L1826.28 247.465ZM1011.33 246.875L1826.81 246.875V248.056L1011.33 248.055V246.875Z" fill="url(#paint0_linear_158_195)"/>
</g>
</g>
<defs>
<linearGradient id="paint0_linear_158_195" x1="34.8507" y1="94.9613" x2="1757.3" y2="274.904" gradientUnits="userSpaceOnUse">
<stop stop-color="white"/>
<stop offset="0.303" stop-color="#68A3A7"/>
<stop offset="0.443" stop-color="#3366CC"/>
<stop offset="0.543" stop-color="#AF8D65"/>
<stop offset="1" stop-color="#D18FC3"/>
</linearGradient>
</defs>
</svg>
