<svg width="1920" height="358" viewBox="0 0 1920 358" fill="none" xmlns="http://www.w3.org/2000/svg">
<mask id="mask0_371_28" style="mask-type:alpha" maskUnits="userSpaceOnUse" x="0" y="0" width="1920" height="358">
<path d="M0 357.84L1920 357.84V-0.000166893L0 -0.000166893L0 357.84Z" fill="#C4C4C4"/>
</mask>
<g mask="url(#mask0_371_28)">
<path d="M0.000976563 17.1422L917.716 17.1422C957.68 17.1422 996.211 32.0311 1025.79 58.9034L1115.47 140.373C1145.04 167.245 1183.58 182.134 1223.54 182.134L1920 182.134V-9.12691L0.000976563 -9.12691L0.000976563 17.1422Z" fill="white"/>
<mask id="mask1_371_28" style="mask-type:alpha" maskUnits="userSpaceOnUse" x="-2" y="72" width="1913" height="212">
<path d="M-1.06836 283.915L1910.36 283.915V72.8537L-1.06836 72.8537L-1.06836 283.915Z" fill="#F8F0E5"/>
</mask>
<g mask="url(#mask1_371_28)">
<path d="M116.788 134.622V135.157H116.252V134.622H116.788ZM116.788 133.155H116.252V132.619H116.788V133.155ZM1880.2 282.447V281.912H1880.73V282.447H1880.2ZM1880.2 283.915H1880.73V284.451H1880.2V283.915ZM160.682 104.73V105.266H160.146V104.73H160.682ZM160.682 103.257H160.146V102.722H160.682V103.257ZM1924.73 253.179V252.644H1925.26V253.179H1924.73ZM1924.73 254.652H1925.26V255.188H1924.73V254.652ZM205.848 75.4625V75.9982H205.312V75.4625H205.848ZM205.848 73.9947H205.312V73.459H205.848V73.9947ZM1969.89 223.288V222.752H1970.42V223.288H1969.89ZM1969.89 224.755H1970.42V225.29H1969.89V224.755ZM966.201 245.403C993.267 269.845 1028.47 283.378 1064.97 283.378V284.45C1028.2 284.45 992.746 270.816 965.482 246.197L966.201 245.403ZM884.874 171.959L966.201 245.403L965.482 246.197L884.157 172.754L884.874 171.959ZM786.378 134.085C822.779 134.085 857.882 147.583 884.874 171.959L884.157 172.754C857.36 148.556 822.513 135.156 786.378 135.156V134.085ZM116.788 134.085L786.378 134.085V135.156L116.788 135.156V134.085ZM117.323 133.154V134.621H116.252V133.155L117.323 133.154ZM804.583 133.69L116.788 133.69V132.619L804.583 132.618V133.69ZM903.347 171.666C876.263 147.217 841.071 133.685 804.583 133.69V132.618C841.336 132.614 876.784 146.244 904.066 170.871L903.347 171.666ZM984.674 245.11L903.347 171.666L904.066 170.871L985.392 244.314L984.674 245.11ZM1083.17 282.982C1046.77 282.982 1011.67 269.485 984.674 245.108L985.392 244.314C1012.21 268.519 1047.05 281.914 1083.17 281.909V282.982ZM1880.2 282.982L1083.17 282.982V281.909L1880.2 281.912V282.982ZM1879.66 283.914V282.446L1880.73 282.447V283.915L1879.66 283.914ZM1064.97 283.378L1880.2 283.378V284.451L1064.97 284.45V283.378ZM1010.4 215.981C1037.48 240.526 1072.68 254.117 1109.2 254.117V255.188C1072.43 255.188 1036.96 241.497 1009.68 216.773L1010.4 215.981ZM929.046 142.227L1010.4 215.981L1009.68 216.773L928.326 143.021L929.046 142.227ZM830.513 104.194C866.928 104.194 902.044 117.749 929.046 142.227L928.326 143.021C901.521 118.72 866.661 105.265 830.513 105.265V104.194ZM160.682 104.194L830.513 104.194V105.265L160.682 105.265V104.194ZM161.218 103.256V104.729H160.146V103.256H161.218ZM848.725 103.792L160.682 103.792V102.72L848.725 102.72V103.792ZM947.524 141.929C920.448 117.383 885.238 103.792 848.725 103.792V102.72C885.517 102.726 920.991 116.419 948.244 141.135L947.524 141.929ZM1028.88 215.681L947.524 141.929L948.244 141.135L1029.6 214.887L1028.88 215.681ZM1127.41 253.714C1090.99 253.714 1055.88 240.16 1028.88 215.681L1029.6 214.887C1056.41 239.187 1091.26 252.643 1127.41 252.643V253.714ZM1924.73 253.714L1127.41 253.714V252.643L1924.73 252.644V253.714ZM1924.19 254.651V253.178L1925.26 253.179V254.652L1924.19 254.651ZM1109.2 254.117L1924.73 254.116V255.188L1109.2 255.188V254.117ZM1055.57 186.242C1082.65 210.684 1117.86 224.218 1154.37 224.218V225.289C1117.59 225.289 1082.12 211.658 1054.85 187.038L1055.57 186.242ZM974.212 112.799L1055.57 186.242L1054.85 187.038L973.495 113.594L974.212 112.799ZM875.68 74.9257C912.094 74.9257 947.209 88.4229 974.212 112.799L973.495 113.594C946.688 89.3957 911.828 75.9971 875.68 75.9971V74.9257ZM205.848 74.9257L875.68 74.9257V75.9971L205.848 75.9971V74.9257ZM206.384 73.9936V75.4614H205.312V73.9936H206.384ZM893.892 74.5293L205.848 74.5293V73.4579L893.892 73.4579V74.5293ZM992.692 112.506C965.616 88.064 930.405 74.5293 893.892 74.5293V73.4579C930.67 73.4579 966.137 87.0912 993.41 111.711L992.692 112.506ZM1074.04 185.948L992.692 112.506L993.41 111.711L1074.76 185.153L1074.04 185.948ZM1172.58 223.823C1136.17 223.823 1101.06 210.324 1074.04 185.948L1074.76 185.153C1101.57 209.351 1136.43 222.751 1172.58 222.751V223.823ZM1969.89 223.823L1172.58 223.823V222.751L1969.89 222.752V223.823ZM1969.35 224.754V223.287L1970.42 223.288V224.755L1969.35 224.754ZM1154.37 224.218L1969.89 224.218V225.29L1154.37 225.289V224.218Z" fill="url(#paint0_linear_371_28)"/>
</g>
</g>
<defs>
<linearGradient id="paint0_linear_371_28" x1="177.859" y1="86.2459" x2="1896.43" y2="283.934" gradientUnits="userSpaceOnUse">
<stop stop-color="#68A3A7" stop-opacity="0"/>
<stop offset="0.303" stop-color="#68A3A7"/>
<stop offset="0.443" stop-color="#3366CC"/>
<stop offset="0.543" stop-color="#D8A76E"/>
<stop offset="1" stop-color="#D8A76E" stop-opacity="0"/>
</linearGradient>
</defs>
</svg>
